<svg data-name="Layer 1" xmlns="http://www.w3.org/2000/svg" viewBox="0 0 24 24" fill="#fff"><path d="M22.92 6a8.86 8.86 0 01-2.47.68 4.27 4.27 0 001.89-2.38 8.64 8.64 0 01-2.72 1.05 4.29 4.29 0 00-7.43 2.93 4.46 4.46 0 00.11 1 12.19 12.19 0 01-8.84-4.49 4.24 4.24 0 00-.58 2.15 4.3 4.3 0 001.9 3.58A4.4 4.4 0 012.84 10a4.29 4.29 0 003.44 4.21 4.22 4.22 0 01-1.13.15 4.45 4.45 0 01-.81-.08 4.3 4.3 0 004 3A8.56 8.56 0 013 19.13a8.72 8.72 0 01-1-.06A12.14 12.14 0 008.58 21 12.13 12.13 0 0020.79 8.79v-.56A8.69 8.69 0 0022.92 6z"/></svg>